<?xml version="1.0" encoding="UTF-8"?>
<!DOCTYPE svg PUBLIC "-//W3C//DTD SVG 1.1//EN" "http://www.w3.org/Graphics/SVG/1.1/DTD/svg11.dtd">
<svg xmlns="http://www.w3.org/2000/svg" version="1.1" width="512px" height="512px" style="shape-rendering:geometricPrecision; text-rendering:geometricPrecision; image-rendering:optimizeQuality; fill-rule:evenodd; clip-rule:evenodd" xmlns:xlink="http://www.w3.org/1999/xlink">
<g><path style="opacity:0.965" fill="#ff5656" d="M 235.5,47.5 C 315.499,43.0908 379.332,72.7575 427,136.5C 468.237,200.311 474.904,267.645 447,338.5C 412.591,411.141 355.424,452.641 275.5,463C 195.478,467.898 131.645,438.398 84,374.5C 42.7624,310.686 36.0958,243.353 64,172.5C 98.6297,99.9332 155.796,58.2665 235.5,47.5 Z M 254.5,79.5 C 329.079,82.9623 382.912,117.962 416,184.5C 442.622,252.088 433.289,314.088 388,370.5C 341.829,420.112 285.329,438.946 218.5,427C 157.159,411.912 114.659,375.078 91,316.5C 67.3607,241.554 83.8607,177.054 140.5,123C 173.467,95.3511 211.467,80.8511 254.5,79.5 Z"/></g>
<g><path style="opacity:0.96" fill="#ff5656" d="M 345.5,159.5 C 364.778,158.61 371.278,167.276 365,185.5C 320,239.167 275,292.833 230,346.5C 223.583,351.665 216.416,352.832 208.5,350C 187.667,327.167 166.833,304.333 146,281.5C 139.706,263.133 146.206,254.633 165.5,256C 166.833,256.667 168.167,257.333 169.5,258C 184.37,273.869 198.87,290.035 213,306.5C 214.113,308.329 215.613,309.163 217.5,309C 257.71,261.793 297.543,214.293 337,166.5C 339.441,163.546 342.275,161.213 345.5,159.5 Z"/></g>
</svg>
